<svg width="2000" height="1342" viewBox="0 0 2000 1342" fill="none" xmlns="http://www.w3.org/2000/svg">
<path d="M2000 0H0V1345H2000V0Z" fill="url(#paint0_linear_1_262)"/>
<path d="M374.933 1100.29H367.948V1222.14H374.933V1100.29Z" fill="#A0204C"/>
<path d="M387.919 1100.29H381.18V1222.14H387.919V1100.29Z" fill="#A0204C"/>
<path d="M400.905 1100.29H394.412V1222.14H400.905V1100.29Z" fill="#9D3F5E"/>
<path d="M413.873 1100.29H407.644V1222.14H413.873V1100.29Z" fill="#A7536F"/>
<path d="M426.859 1100.29H420.876V1222.14H426.859V1100.29Z" fill="#B16881"/>
<path d="M439.845 1100.29H434.109V1222.14H439.845V1100.29Z" fill="#BF7B92"/>
<path d="M452.813 1100.29H447.323V1222.14H452.813V1100.29Z" fill="#8F889B"/>
<path d="M465.799 1100.29H460.555V1222.14H465.799V1100.29Z" fill="#787D9C"/>
<path d="M478.785 1100.29H473.787V1222.14H478.785V1100.29Z" fill="#5F6483"/>
<path d="M491.771 1100.29H487.02V1222.14H491.771V1100.29Z" fill="#282D50"/>
<path d="M491.753 1221.7H244.336V1342.79H491.753V1221.7Z" fill="#A0204C"/>
<path d="M366.874 1342.65L243.807 1221.67L244.335 1342.79" fill="#282D4D"/>
<path d="M483.941 1281.64C483.941 1251.98 459.464 1227.91 429.287 1227.91C399.11 1227.91 374.634 1251.98 374.634 1281.64C374.634 1311.31 399.11 1335.37 429.287 1335.37C459.464 1335.37 483.941 1311.33 483.941 1281.64ZM389.01 1281.64C389.01 1259.78 407.046 1242.05 429.287 1242.05C451.529 1242.05 469.565 1259.78 469.565 1281.64C469.565 1303.51 451.529 1321.24 429.287 1321.24C407.046 1321.25 389.01 1303.52 389.01 1281.64Z" fill="#7E8195"/>
<path d="M469.582 1281.64C469.582 1259.78 451.546 1242.05 429.305 1242.05C407.064 1242.05 389.028 1259.78 389.028 1281.64C389.028 1303.51 407.064 1321.24 429.305 1321.24C451.546 1321.26 469.582 1303.52 469.582 1281.64ZM402.453 1281.64C402.453 1267.08 414.472 1255.26 429.287 1255.26C444.103 1255.26 456.121 1267.08 456.121 1281.64C456.121 1296.21 444.103 1308.02 429.287 1308.02C414.472 1308.04 402.453 1296.22 402.453 1281.64Z" fill="white"/>
<path d="M367.595 1215.67C361.947 1215.81 361.842 1211.08 356.193 1211.21C350.545 1211.34 350.668 1216.05 345.02 1216.19C339.371 1216.33 339.266 1211.6 333.635 1211.72C327.987 1211.86 328.11 1216.57 322.462 1216.71C316.813 1216.84 316.708 1212.12 311.059 1212.24C305.411 1212.38 305.534 1217.09 299.886 1217.23C294.238 1217.36 294.132 1212.64 288.484 1212.76C282.835 1212.9 282.959 1217.61 277.31 1217.74C271.662 1217.88 271.556 1213.16 265.908 1213.28C260.26 1213.42 260.365 1218.13 254.717 1218.26C249.069 1218.4 248.945 1213.68 243.297 1213.8" stroke="white" stroke-width="1.925" stroke-miterlimit="10"/>
<path d="M367.595 1200.1C361.947 1200.24 361.842 1195.52 356.193 1195.64C350.545 1195.78 350.668 1200.48 345.02 1200.62C339.371 1200.76 339.266 1196.04 333.635 1196.16C327.987 1196.29 328.11 1201 322.462 1201.14C316.813 1201.28 316.708 1196.55 311.059 1196.68C305.411 1196.81 305.534 1201.52 299.886 1201.66C294.238 1201.8 294.132 1197.07 288.484 1197.19C282.835 1197.33 282.959 1202.04 277.31 1202.18C271.662 1202.31 271.556 1197.59 265.908 1197.71C260.26 1197.85 260.365 1202.56 254.717 1202.7C249.069 1202.83 248.945 1198.11 243.297 1198.23" stroke="white" stroke-width="1.925" stroke-miterlimit="10"/>
<path d="M367.595 1184.53C361.947 1184.67 361.842 1179.95 356.193 1180.07C350.545 1180.21 350.668 1184.91 345.02 1185.05C339.371 1185.19 339.266 1180.47 333.635 1180.59C327.987 1180.73 328.11 1185.43 322.462 1185.57C316.813 1185.71 316.708 1180.99 311.059 1181.11C305.411 1181.25 305.534 1185.95 299.886 1186.09C294.238 1186.23 294.132 1181.5 288.484 1181.63C282.835 1181.76 282.959 1186.47 277.31 1186.61C271.662 1186.75 271.556 1182.02 265.908 1182.14C260.26 1182.28 260.365 1186.99 254.717 1187.13C249.069 1187.27 248.945 1182.54 243.297 1182.66" stroke="white" stroke-width="1.925" stroke-miterlimit="10"/>
<path d="M367.595 1168.96C361.947 1169.1 361.842 1164.38 356.193 1164.5C350.545 1164.64 350.668 1169.34 345.02 1169.48C339.371 1169.62 339.266 1164.9 333.635 1165.02C327.987 1165.16 328.11 1169.86 322.462 1170C316.813 1170.14 316.708 1165.42 311.059 1165.54C305.411 1165.68 305.534 1170.38 299.886 1170.52C294.238 1170.66 294.132 1165.94 288.484 1166.06C282.835 1166.2 282.959 1170.9 277.31 1171.04C271.662 1171.18 271.556 1166.46 265.908 1166.58C260.26 1166.71 260.365 1171.42 254.717 1171.56C249.069 1171.68 248.945 1166.97 243.297 1167.1" stroke="white" stroke-width="1.925" stroke-miterlimit="10"/>
<path d="M367.595 1153.4C361.947 1153.53 361.842 1148.81 356.193 1148.93C350.545 1149.07 350.668 1153.78 345.02 1153.91C339.371 1154.05 339.266 1149.33 333.635 1149.45C327.987 1149.59 328.11 1154.29 322.462 1154.43C316.813 1154.57 316.708 1149.85 311.059 1149.97C305.411 1150.11 305.534 1154.81 299.886 1154.95C294.238 1155.09 294.132 1150.37 288.484 1150.49C282.835 1150.63 282.959 1155.33 277.31 1155.47C271.662 1155.61 271.556 1150.89 265.908 1151.01C260.26 1151.15 260.365 1155.85 254.717 1155.99C249.069 1156.13 248.945 1151.41 243.297 1151.53" stroke="white" stroke-width="1.925" stroke-miterlimit="10"/>
<path d="M367.595 1137.83C361.947 1137.97 361.842 1133.24 356.193 1133.36C350.545 1133.5 350.668 1138.21 345.02 1138.35C339.371 1138.48 339.266 1133.76 333.635 1133.88C327.987 1134.02 328.11 1138.73 322.462 1138.86C316.813 1139 316.708 1134.28 311.059 1134.4C305.411 1134.54 305.534 1139.25 299.886 1139.38C294.238 1139.52 294.132 1134.8 288.484 1134.92C282.835 1135.06 282.959 1139.76 277.31 1139.9C271.662 1140.04 271.556 1135.32 265.908 1135.46C260.26 1135.58 260.365 1140.3 254.717 1140.44C249.069 1140.58 248.945 1135.85 243.297 1135.98" stroke="white" stroke-width="1.925" stroke-miterlimit="10"/>
<path d="M367.595 1122.26C361.947 1122.4 361.842 1117.67 356.193 1117.8C350.545 1117.93 350.668 1122.64 345.02 1122.78C339.371 1122.92 339.266 1118.19 333.635 1118.31C327.987 1118.45 328.11 1123.16 322.462 1123.3C316.813 1123.43 316.708 1118.71 311.059 1118.83C305.411 1118.97 305.534 1123.68 299.886 1123.82C294.238 1123.95 294.132 1119.23 288.484 1119.35C282.835 1119.49 282.959 1124.2 277.31 1124.33C271.662 1124.47 271.556 1119.75 265.908 1119.87C260.26 1120.01 260.365 1124.71 254.717 1124.85C249.069 1124.99 248.945 1120.27 243.297 1120.39" stroke="white" stroke-width="1.925" stroke-miterlimit="10"/>
<path d="M367.595 1106.69C361.947 1106.83 361.842 1102.11 356.193 1102.23C350.545 1102.37 350.668 1107.07 345.02 1107.21C339.371 1107.35 339.266 1102.62 333.635 1102.75C327.987 1102.88 328.11 1107.59 322.462 1107.73C316.813 1107.87 316.708 1103.14 311.059 1103.26C305.411 1103.4 305.534 1108.11 299.886 1108.25C294.238 1108.38 294.132 1103.66 288.484 1103.78C282.835 1103.92 282.959 1108.63 277.31 1108.77C271.662 1108.9 271.556 1104.18 265.908 1104.3C260.26 1104.44 260.365 1109.15 254.717 1109.28C249.069 1109.42 248.945 1104.7 243.297 1104.82" stroke="white" stroke-width="1.925" stroke-miterlimit="10"/>
<path d="M66.5184 1033.01H0V1099.7H66.5184V1033.01Z" fill="#655875"/>
<path d="M0 1033.01V1099.7H66.5184L0 1033.01Z" fill="#282D4F"/>
<path d="M0 1033.01H66.5184V966.347L0 1033.01Z" fill="#282D4F"/>
<path opacity="0.2" d="M246.024 834.966C347.735 834.966 430.187 754.956 430.187 656.258C430.187 557.56 347.735 477.55 246.024 477.55C144.313 477.55 61.8597 557.56 61.8597 656.258C61.8597 754.956 144.313 834.966 246.024 834.966Z" fill="#932D4C"/>
<path opacity="0.4" d="M246.024 790.216C322.262 790.216 384.065 730.241 384.065 656.258C384.065 582.276 322.262 522.301 246.024 522.301C169.786 522.301 107.983 582.276 107.983 656.258C107.983 730.241 169.786 790.216 246.024 790.216Z" fill="#9D3F5E"/>
<path opacity="0.6" d="M246.024 751.191C300.057 751.191 343.86 708.688 343.86 656.258C343.86 603.828 300.057 561.326 246.024 561.326C191.99 561.326 148.187 603.828 148.187 656.258C148.187 708.688 191.99 751.191 246.024 751.191Z" fill="#932D4C"/>
<path d="M292.526 625.035H199.141V722.026H292.526V625.035Z" fill="#95D6DF"/>
<path d="M292.906 722.026H246.024H199.142L183.491 1098.68H246.024H308.556L292.906 722.026Z" fill="#23103A"/>
<path d="M309.764 703.69H182.3V722.026H309.764V703.69Z" fill="#282D4F"/>
<path d="M309.764 606.681H182.3V625.017H309.764V606.681Z" fill="#282D4F"/>
<path d="M268.455 561.429H223.212C209.926 561.429 199.141 572.223 199.141 585.56V606.698H292.526V585.56C292.526 572.223 281.759 561.429 268.455 561.429Z" fill="#23103A"/>
<path d="M248.457 661.984H243.608V703.69H248.457V661.984Z" fill="#282D4F"/>
<path d="M246.023 669.353C253.237 669.353 259.085 663.49 259.085 656.258C259.085 649.026 253.237 643.163 246.023 643.163C238.809 643.163 232.961 649.026 232.961 656.258C232.961 663.49 238.809 669.353 246.023 669.353Z" fill="#655875"/>
<path d="M300.533 905.612L195.88 800.699L199.141 722.026H228.096L295.718 789.801L300.533 905.612Z" fill="#655875"/>
<path d="M308.556 1098.68H271.82L187.011 1013.66L191.446 907.117L305.347 1021.3L308.556 1098.68Z" fill="#655875"/>
<path opacity="0.15" d="M291.612 625.052V703.725H308.832V722.026H291.991L296.391 827.943C280.102 832.51 262.899 834.966 245.109 834.966C227.319 834.966 210.098 832.51 193.827 827.943L198.227 722.061H181.369V703.638H198.227V624.983H181.334V606.768H198.244C198.244 606.768 198.244 595.195 198.244 586.702C198.244 578.208 200.729 574.783 202.161 572.275C208.149 561.637 222.039 561.429 222.039 561.429C222.039 561.429 260.432 561.429 269.387 561.429C278.342 561.429 284.658 568.781 285.935 570.061C291.767 576.063 291.612 584.557 291.612 584.557V606.681H308.832V625.052H291.612Z" fill="#932D4C"/>
<path d="M399.059 966.503H332.558V1033.17H399.059V966.503Z" fill="#655875"/>
<path d="M399.076 1033.17H332.558V966.503L399.076 1033.17Z" fill="#282D4F"/>
<path d="M399.059 1033.33H332.558V1099.99H399.059V1033.33Z" fill="#655875"/>
<path d="M399.076 1100.01H332.558L399.076 1033.33V1100.01Z" fill="#282D4F"/>
<path d="M399.076 966.502H332.558V899.818L399.076 966.502Z" fill="#282D4F"/>
<path d="M157.66 966.503H91.1589V1033.17H157.66V966.503Z" fill="#655875"/>
<path d="M157.66 1033.17H91.1589V966.503L157.66 1033.17Z" fill="#282D4F"/>
<path d="M157.66 1033.33H91.1589V1099.99H157.66V1033.33Z" fill="#655875"/>
<path d="M157.66 1100.01H91.1589L157.66 1033.33V1100.01Z" fill="#282D4F"/>
<path d="M157.66 966.502H91.1589L157.66 899.818V966.502Z" fill="#282D4F"/>
<path d="M490.998 1033.01H424.479V1099.7H490.998V1033.01Z" fill="#655875"/>
<path d="M490.998 1033.01V1099.7H424.479L490.998 1033.01Z" fill="#282D4F"/>
<path d="M490.998 1033.01H424.479V966.347L490.998 1033.01Z" fill="#282D4F"/>
<path opacity="0.15" d="M291.801 623.322V701.995H309.022V720.296H292.181L294.631 779.664C279.309 785.373 262.675 788.486 245.299 788.486C227.906 788.486 211.272 785.373 195.949 779.664L198.417 720.331H181.524V701.908H198.417V623.305H181.576V604.952H198.468C198.468 604.952 198.468 592.203 198.468 583.588C198.468 574.974 203.041 569.594 203.835 568.556C211.582 559.215 222.367 559.613 222.367 559.613C222.367 559.613 256.377 559.613 267.575 559.613C278.791 559.613 285.055 566.93 286.09 568.314C292.405 575.268 291.801 584.453 291.801 584.453V604.9H309.022V623.322H291.801Z" fill="#932D4C"/>
<path opacity="0.15" d="M291.801 622.863L291.75 701.535H308.97V719.768H292.129L292.819 737.031C278.739 744.66 262.519 749.002 245.247 749.002C227.957 749.002 211.72 744.66 197.64 737.031L198.365 719.837H181.558V701.449H198.365V622.845H181.558V604.578H198.382C198.382 604.578 198.382 594.58 198.382 584.512C198.382 574.479 202.903 569.221 203.817 568.062C203.835 568.062 203.835 568.045 203.835 568.045C211.858 558.894 221.383 559.274 221.383 559.274H224.869C224.869 559.274 231.788 559.274 240.208 559.274H266.523C277.307 559.274 282 564.014 283.571 565.277C284.571 566.073 285.434 566.955 286.211 567.854C291.819 574.531 291.75 583.336 291.75 583.336V604.44H308.97V622.863H291.801Z" fill="#932D4C"/>
<path d="M116.275 1176.4C116.275 1142.96 143.47 1115.86 177.016 1115.86C210.562 1115.86 237.757 1142.96 237.757 1176.4C237.757 1209.84 210.562 1236.94 177.016 1236.94C143.47 1236.94 116.275 1209.84 116.275 1176.4ZM221.79 1176.4C221.79 1151.75 201.746 1131.77 177.016 1131.77C152.286 1131.77 132.241 1151.75 132.241 1176.4C132.241 1201.05 152.286 1221.03 177.016 1221.03C201.746 1221.03 221.79 1201.05 221.79 1176.4Z" fill="#7E8195"/>
<path d="M131.894 1176.05C131.894 1151.4 151.939 1131.42 176.669 1131.42C201.399 1131.42 221.443 1151.4 221.443 1176.05C221.443 1200.7 201.399 1220.68 176.669 1220.68C151.939 1220.68 131.894 1200.7 131.894 1176.05ZM206.484 1176.05C206.484 1159.64 193.121 1146.32 176.651 1146.32C160.182 1146.32 146.819 1159.64 146.819 1176.05C146.819 1192.47 160.182 1205.79 176.651 1205.79C193.121 1205.79 206.484 1192.47 206.484 1176.05Z" fill="white"/>
<path d="M244.698 1334.43V1342.46H0L0.1573 1100.29H37.334C75.5943 1100.29 106.618 1135.79 106.618 1179.61L106.391 1205.71C106.147 1232.91 125.338 1255.11 149.091 1255.11H175.414C213.674 1255.11 244.698 1290.61 244.698 1334.43Z" fill="#282D4D"/>
<path d="M39.9152 1304.41C39.9152 1311.72 45.8678 1317.66 53.2088 1317.66C60.5497 1317.66 66.5023 1311.72 66.5023 1304.41C66.5023 1311.72 72.4548 1317.66 79.7958 1317.66C87.1367 1317.66 93.0894 1311.72 93.0894 1304.41C93.0894 1311.72 99.0419 1317.66 106.383 1317.66C113.724 1317.66 119.676 1311.72 119.676 1304.41C119.676 1311.72 125.629 1317.66 132.97 1317.66C140.311 1317.66 146.263 1311.72 146.263 1304.41" stroke="white" stroke-opacity="0.7" stroke-width="2" stroke-miterlimit="10"/>
<path d="M13.8837 1259.43C13.8837 1266.75 19.8363 1272.68 27.1773 1272.68C34.5182 1272.68 40.4709 1266.75 40.4709 1259.43C40.4709 1266.75 46.4235 1272.68 53.7644 1272.68C61.1054 1272.68 67.0578 1266.75 67.0578 1259.43C67.0578 1266.75 73.0105 1272.68 80.3514 1272.68C87.6924 1272.68 93.645 1266.75 93.645 1259.43C93.645 1266.75 99.5977 1272.68 106.939 1272.68C114.28 1272.68 120.232 1266.75 120.232 1259.43" stroke="white" stroke-opacity="0.7" stroke-width="2" stroke-miterlimit="10"/>
<path d="M194.144 71.97C194.495 72.1104 194.845 72.2649 195.195 72.4194C210.565 78.768 223.062 90.7068 230.11 105.722C230.656 106.887 231.174 108.067 231.651 109.275C234.747 116.972 236.442 125.371 236.442 134.178C236.442 136.818 236.288 139.417 235.994 141.973H49.037C50.7463 133.728 54.5292 126.256 59.7971 120.104C63.5099 115.778 67.9653 112.098 72.9671 109.289C78.6134 106.101 84.9461 104.022 91.6992 103.306C93.4085 103.123 95.1318 103.025 96.8831 103.025C97.2193 103.025 97.5556 103.039 97.8919 103.039C102.081 103.123 106.144 103.727 109.997 104.823C113.416 97.8419 118.011 91.5495 123.517 86.2122C130.046 79.8776 137.864 74.8634 146.551 71.6188C149.311 70.5795 152.155 69.7367 155.083 69.0766C159.833 67.9951 164.764 67.4192 169.836 67.4192C178.411 67.3911 186.607 69.0204 194.144 71.97Z" fill="url(#paint1_linear_1_262)"/>
<path d="M389.059 364.343C389.325 364.441 389.578 364.567 389.844 364.666C401.22 369.371 410.467 378.206 415.693 389.316C416.1 390.172 416.478 391.057 416.828 391.942C419.112 397.631 420.373 403.867 420.373 410.384C420.373 412.336 420.261 414.275 420.037 416.157H281.612C282.873 410.061 285.675 404.513 289.584 399.962C292.33 396.76 295.637 394.035 299.336 391.956C303.511 389.597 308.204 388.052 313.206 387.532C314.467 387.391 315.742 387.321 317.045 387.321C317.297 387.321 317.549 387.321 317.802 387.335C320.898 387.391 323.91 387.855 326.768 388.655C329.29 383.487 332.695 378.838 336.772 374.877C341.606 370.186 347.392 366.477 353.823 364.076C355.868 363.317 357.97 362.685 360.141 362.194C363.658 361.393 367.315 360.972 371.07 360.972C377.417 360.958 383.483 362.165 389.059 364.343Z" fill="url(#paint2_linear_1_262)"/>
<path d="M111.65 266.024C111.916 266.122 112.169 266.249 112.435 266.347C123.811 271.052 133.058 279.887 138.284 290.997C138.691 291.854 139.069 292.739 139.419 293.623C141.703 299.312 142.964 305.548 142.964 312.065C142.964 314.018 142.852 315.956 142.628 317.838H4.20325C5.4642 311.742 8.26631 306.194 12.1753 301.643C14.9213 298.441 18.2278 295.716 21.9266 293.637C26.1018 291.278 30.7953 289.733 35.7971 289.213C37.058 289.073 38.333 289.002 39.636 289.002C39.8882 289.002 40.1403 289.002 40.3925 289.016C43.4889 289.073 46.5011 289.536 49.3593 290.337C51.8812 285.168 55.2858 280.519 59.3628 276.558C64.1965 271.867 69.9828 268.159 76.4137 265.757C78.4592 264.999 80.5608 264.366 82.7324 263.875C86.2491 263.074 89.9058 262.653 93.6607 262.653C99.9934 262.625 106.074 263.833 111.65 266.024Z" fill="url(#paint3_linear_1_262)"/>
<path d="M261.115 184.784C262.09 184.784 262.88 183.991 262.88 183.014C262.88 182.037 262.09 181.244 261.115 181.244C260.14 181.244 259.349 182.037 259.349 183.014C259.349 183.991 260.14 184.784 261.115 184.784Z" fill="white"/>
<path d="M49.5554 47.137C50.5304 47.137 51.3208 46.3447 51.3208 45.3673C51.3208 44.3899 50.5304 43.5975 49.5554 43.5975C48.5805 43.5975 47.7901 44.3899 47.7901 45.3673C47.7901 46.3447 48.5805 47.137 49.5554 47.137Z" fill="white"/>
<path d="M375.847 86.4084C376.822 86.4084 377.613 85.616 377.613 84.6386C377.613 83.6612 376.822 82.8689 375.847 82.8689C374.872 82.8689 374.082 83.6612 374.082 84.6386C374.082 85.616 374.872 86.4084 375.847 86.4084Z" fill="white"/>
<path d="M80.939 380.27C83.0979 380.27 84.848 378.516 84.848 376.351C84.848 374.187 83.0979 372.433 80.939 372.433C78.7802 372.433 77.0301 374.187 77.0301 376.351C77.0301 378.516 78.7802 380.27 80.939 380.27Z" fill="white"/>
<path d="M1300.35 84.3724C1300.7 84.5128 1301.05 84.6673 1301.41 84.8218C1316.77 91.1704 1329.27 103.109 1336.32 118.124C1336.87 119.29 1337.38 120.47 1337.86 121.677C1340.96 129.374 1342.65 137.774 1342.65 146.58C1342.65 149.221 1342.5 151.819 1342.2 154.376H1155.25C1156.96 146.131 1160.74 138.659 1166.01 132.507C1169.72 128.181 1174.18 124.501 1179.18 121.691C1184.82 118.503 1191.16 116.424 1197.91 115.708C1199.62 115.525 1201.34 115.427 1203.09 115.427C1203.43 115.427 1203.77 115.441 1204.1 115.441C1208.29 115.525 1212.35 116.129 1216.21 117.225C1219.63 110.244 1224.22 103.952 1229.73 98.6146C1236.26 92.28 1244.07 87.2658 1252.76 84.0212C1255.52 82.9819 1258.36 82.1391 1261.29 81.479C1266.04 80.3975 1270.97 79.8216 1276.05 79.8216C1284.62 79.7935 1292.82 81.4228 1300.35 84.3724Z" fill="url(#paint4_linear_1_262)"/>
<path d="M1495.27 376.745C1495.54 376.843 1495.79 376.97 1496.05 377.068C1507.43 381.773 1516.68 390.608 1521.9 401.718C1522.31 402.575 1522.69 403.46 1523.04 404.345C1525.32 410.033 1526.58 416.269 1526.58 422.786C1526.58 424.739 1526.47 426.677 1526.25 428.559H1387.82C1389.08 422.463 1391.89 416.915 1395.79 412.365C1398.54 409.162 1401.85 406.437 1405.55 404.359C1409.72 401.999 1414.41 400.454 1419.42 399.934C1420.68 399.794 1421.95 399.724 1423.25 399.724C1423.51 399.724 1423.76 399.724 1424.01 399.738C1427.11 399.794 1430.12 400.257 1432.98 401.058C1435.5 395.889 1438.9 391.24 1442.98 387.279C1447.82 382.588 1453.6 378.88 1460.03 376.478C1462.08 375.72 1464.18 375.088 1466.35 374.596C1469.87 373.795 1473.52 373.374 1477.28 373.374C1483.63 373.36 1489.69 374.568 1495.27 376.745Z" fill="url(#paint5_linear_1_262)"/>
<path d="M1367.32 197.186C1368.3 197.186 1369.09 196.394 1369.09 195.416C1369.09 194.439 1368.3 193.647 1367.32 193.647C1366.35 193.647 1365.56 194.439 1365.56 195.416C1365.56 196.394 1366.35 197.186 1367.32 197.186Z" fill="white"/>
<path d="M1155.77 59.5395C1156.74 59.5395 1157.53 58.7471 1157.53 57.7697C1157.53 56.7923 1156.74 56 1155.77 56C1154.79 56 1154 56.7923 1154 57.7697C1154 58.7471 1154.79 59.5395 1155.77 59.5395Z" fill="white"/>
<path d="M1482.06 98.8109C1483.03 98.8109 1483.82 98.0185 1483.82 97.0411C1483.82 96.0637 1483.03 95.2714 1482.06 95.2714C1481.08 95.2714 1480.29 96.0637 1480.29 97.0411C1480.29 98.0185 1481.08 98.8109 1482.06 98.8109Z" fill="white"/>
<path d="M1710.77 59.5395C1711.74 59.5395 1712.53 58.7472 1712.53 57.7697C1712.53 56.7923 1711.74 56 1710.77 56C1709.79 56 1709 56.7923 1709 57.7697C1709 58.7472 1709.79 59.5395 1710.77 59.5395Z" fill="white"/>
<path d="M1187.15 392.672C1189.31 392.672 1191.06 390.918 1191.06 388.754C1191.06 386.59 1189.31 384.835 1187.15 384.835C1184.99 384.835 1183.24 386.59 1183.24 388.754C1183.24 390.918 1184.99 392.672 1187.15 392.672Z" fill="white"/>
<path d="M84.904 220.263L81.009 224.167L42.8443 185.921L46.7533 182.003L84.904 220.263Z" fill="url(#paint6_linear_1_262)"/>
<path d="M44.7918 186.722C46.3161 186.722 47.5518 185.483 47.5518 183.955C47.5518 182.427 46.3161 181.188 44.7918 181.188C43.2674 181.188 42.0317 182.427 42.0317 183.955C42.0317 185.483 43.2674 186.722 44.7918 186.722Z" fill="white"/>
<path d="M487.61 297.865L483.701 301.769L368.184 185.964L372.079 182.045L487.61 297.865Z" fill="url(#paint7_linear_1_262)"/>
<path d="M370.131 186.764C371.655 186.764 372.891 185.525 372.891 183.997C372.891 182.469 371.655 181.23 370.131 181.23C368.607 181.23 367.371 182.469 367.371 183.997C367.371 185.525 368.607 186.764 370.131 186.764Z" fill="white"/>
<path d="M788.941 71.5512C789.291 71.6916 789.642 71.8461 789.992 72.0006C805.361 78.3492 817.859 90.288 824.906 105.303C825.453 106.468 825.971 107.648 826.447 108.856C829.544 116.553 831.239 124.952 831.239 133.759C831.239 136.4 831.085 138.998 830.791 141.554H643.834C645.543 133.31 649.326 125.837 654.594 119.685C658.307 115.359 662.762 111.679 667.764 108.87C673.41 105.682 679.743 103.603 686.496 102.887C688.205 102.704 689.928 102.606 691.68 102.606C692.016 102.606 692.352 102.62 692.689 102.62C696.878 102.704 700.941 103.308 704.794 104.404C708.212 97.4231 712.808 91.1307 718.314 85.7934C724.843 79.4588 732.661 74.4445 741.347 71.2C744.107 70.1606 746.951 69.3179 749.88 68.6578C754.629 67.5763 759.561 67.0004 764.633 67.0004C773.207 66.9723 781.403 68.6016 788.941 71.5512Z" fill="url(#paint8_linear_1_262)"/>
<path d="M983.856 363.924C984.122 364.022 984.374 364.148 984.641 364.247C996.017 368.952 1005.26 377.787 1010.49 388.897C1010.9 389.754 1011.27 390.638 1011.62 391.523C1013.91 397.212 1015.17 403.448 1015.17 409.965C1015.17 411.917 1015.06 413.856 1014.83 415.738H876.409C877.67 409.642 880.472 404.094 884.381 399.543C887.127 396.341 890.434 393.616 894.132 391.537C898.308 389.178 903.001 387.633 908.003 387.113C909.264 386.973 910.539 386.902 911.842 386.902C912.094 386.902 912.346 386.902 912.598 386.916C915.695 386.973 918.707 387.436 921.565 388.237C924.087 383.068 927.492 378.419 931.569 374.458C936.402 369.767 942.189 366.059 948.619 363.657C950.665 362.898 952.767 362.266 954.938 361.775C958.455 360.974 962.112 360.553 965.866 360.553C972.213 360.539 978.28 361.747 983.856 363.924Z" fill="url(#paint9_linear_1_262)"/>
<path d="M706.447 265.605C706.713 265.703 706.965 265.83 707.232 265.928C718.608 270.633 727.855 279.468 733.081 290.578C733.487 291.435 733.866 292.32 734.216 293.205C736.5 298.893 737.761 305.129 737.761 311.646C737.761 313.599 737.649 315.537 737.424 317.419H599C600.261 311.323 603.063 305.775 606.972 301.225C609.718 298.022 613.025 295.297 616.723 293.219C620.899 290.859 625.592 289.314 630.594 288.794C631.855 288.654 633.13 288.584 634.433 288.584C634.685 288.584 634.937 288.584 635.189 288.598C638.286 288.654 641.298 289.117 644.156 289.918C646.678 284.749 650.083 280.1 654.16 276.139C658.993 271.448 664.78 267.74 671.21 265.338C673.256 264.58 675.358 263.948 677.529 263.456C681.046 262.655 684.703 262.234 688.457 262.234C694.79 262.206 700.871 263.414 706.447 265.605Z" fill="url(#paint10_linear_1_262)"/>
<path d="M1889.24 422.408C1890.21 422.408 1891 421.616 1891 420.639C1891 419.661 1890.21 418.869 1889.24 418.869C1888.26 418.869 1887.47 419.661 1887.47 420.639C1887.47 421.616 1888.26 422.408 1889.24 422.408Z" fill="white"/>
<path d="M1651 313.865L1647.09 317.769L1531.57 201.964L1535.47 198.045L1651 313.865Z" fill="url(#paint11_linear_1_262)"/>
<path d="M1533.52 202.764C1535.04 202.764 1536.28 201.525 1536.28 199.997C1536.28 198.469 1535.04 197.23 1533.52 197.23C1531.99 197.23 1530.76 198.469 1530.76 199.997C1530.76 201.525 1531.99 202.764 1533.52 202.764Z" fill="white"/>
<path d="M1952.33 87.5512C1952.68 87.6916 1953.03 87.8461 1953.38 88.0006C1968.75 94.3492 1981.25 106.288 1988.29 121.303C1988.84 122.468 1989.36 123.648 1989.84 124.856C1992.93 132.553 1994.63 140.952 1994.63 149.759C1994.63 152.4 1994.47 154.998 1994.18 157.554H1807.22C1808.93 149.31 1812.71 141.837 1817.98 135.685C1821.69 131.359 1826.15 127.679 1831.15 124.87C1836.8 121.682 1843.13 119.603 1849.88 118.887C1851.59 118.704 1853.32 118.606 1855.07 118.606C1855.4 118.606 1855.74 118.62 1856.08 118.62C1860.27 118.704 1864.33 119.308 1868.18 120.404C1871.6 113.423 1876.2 107.131 1881.7 101.793C1888.23 95.4588 1896.05 90.4445 1904.73 87.2C1907.5 86.1606 1910.34 85.3179 1913.27 84.6578C1918.02 83.5763 1922.95 83.0004 1928.02 83.0004C1936.59 82.9723 1944.79 84.6016 1952.33 87.5512Z" fill="url(#paint12_linear_1_262)"/>
<path d="M1869.83 281.605C1870.1 281.703 1870.35 281.83 1870.62 281.928C1882 286.633 1891.24 295.468 1896.47 306.578C1896.88 307.435 1897.25 308.32 1897.6 309.205C1899.89 314.893 1901.15 321.129 1901.15 327.646C1901.15 329.599 1901.04 331.537 1900.81 333.419H1762.39C1763.65 327.323 1766.45 321.775 1770.36 317.225C1773.11 314.022 1776.41 311.297 1780.11 309.219C1784.29 306.859 1788.98 305.314 1793.98 304.794C1795.24 304.654 1796.52 304.584 1797.82 304.584C1798.07 304.584 1798.32 304.584 1798.58 304.598C1801.67 304.654 1804.69 305.117 1807.54 305.918C1810.07 300.749 1813.47 296.1 1817.55 292.139C1822.38 287.448 1828.17 283.74 1834.6 281.338C1836.64 280.58 1838.75 279.948 1840.92 279.456C1844.43 278.655 1848.09 278.234 1851.85 278.234C1858.18 278.206 1864.26 279.414 1869.83 281.605Z" fill="url(#paint13_linear_1_262)"/>
<path d="M679.701 219.844L675.806 223.749L637.641 185.503L641.55 181.584L679.701 219.844Z" fill="url(#paint14_linear_1_262)"/>
<path d="M639.589 186.303C641.113 186.303 642.349 185.064 642.349 183.536C642.349 182.008 641.113 180.769 639.589 180.769C638.064 180.769 636.828 182.008 636.828 183.536C636.828 185.064 638.064 186.303 639.589 186.303Z" fill="white"/>
<path d="M1082.41 297.446L1078.5 301.351L962.98 185.545L966.875 181.626L1082.41 297.446Z" fill="url(#paint15_linear_1_262)"/>
<path d="M964.928 186.345C966.452 186.345 967.688 185.107 967.688 183.578C967.688 182.05 966.452 180.811 964.928 180.811C963.403 180.811 962.168 182.05 962.168 183.578C962.168 185.107 963.403 186.345 964.928 186.345Z" fill="white"/>
<defs>
<linearGradient id="paint0_linear_1_262" x1="1000" y1="1714.65" x2="1000" y2="454.258" gradientUnits="userSpaceOnUse">
<stop stop-color="#95D6DF"/>
<stop offset="0.1593" stop-color="#93D2DC"/>
<stop offset="0.303" stop-color="#8DC7D4"/>
<stop offset="0.4408" stop-color="#83B5C5"/>
<stop offset="0.5748" stop-color="#749BB1"/>
<stop offset="0.7062" stop-color="#627A96"/>
<stop offset="0.8356" stop-color="#4C415F"/>
<stop offset="0.961" stop-color="#36294B"/>
<stop offset="1" stop-color="#201238"/>
</linearGradient>
<linearGradient id="paint1_linear_1_262" x1="142.751" y1="137.047" x2="144.042" y2="-8.47553" gradientUnits="userSpaceOnUse">
<stop stop-color="white" stop-opacity="0"/>
<stop offset="1" stop-color="white"/>
</linearGradient>
<linearGradient id="paint2_linear_1_262" x1="351.012" y1="412.524" x2="351.967" y2="304.789" gradientUnits="userSpaceOnUse">
<stop stop-color="white" stop-opacity="0"/>
<stop offset="1" stop-color="white"/>
</linearGradient>
<linearGradient id="paint3_linear_1_262" x1="73.5955" y1="314.202" x2="74.5513" y2="206.467" gradientUnits="userSpaceOnUse">
<stop stop-color="white" stop-opacity="0"/>
<stop offset="1" stop-color="white"/>
</linearGradient>
<linearGradient id="paint4_linear_1_262" x1="1248.96" y1="149.449" x2="1250.25" y2="3.92687" gradientUnits="userSpaceOnUse">
<stop stop-color="white" stop-opacity="0"/>
<stop offset="1" stop-color="white"/>
</linearGradient>
<linearGradient id="paint5_linear_1_262" x1="1457.22" y1="424.926" x2="1458.18" y2="317.192" gradientUnits="userSpaceOnUse">
<stop stop-color="white" stop-opacity="0"/>
<stop offset="1" stop-color="white"/>
</linearGradient>
<linearGradient id="paint6_linear_1_262" x1="87.7911" y1="227.073" x2="35.2572" y2="174.67" gradientUnits="userSpaceOnUse">
<stop stop-color="#95D6DF" stop-opacity="0"/>
<stop offset="0.2116" stop-color="#99D7E0" stop-opacity="0.2116"/>
<stop offset="0.4024" stop-color="#A4DCE3" stop-opacity="0.4024"/>
<stop offset="0.5852" stop-color="#B6E3E9" stop-opacity="0.5852"/>
<stop offset="0.763" stop-color="#D0EDF1" stop-opacity="0.763"/>
<stop offset="0.9357" stop-color="#F1F9FB" stop-opacity="0.9357"/>
<stop offset="1" stop-color="white"/>
</linearGradient>
<linearGradient id="paint7_linear_1_262" x1="500.363" y1="314.57" x2="341.332" y2="155.935" gradientUnits="userSpaceOnUse">
<stop stop-color="#95D6DF" stop-opacity="0"/>
<stop offset="0.2116" stop-color="#99D7E0" stop-opacity="0.2116"/>
<stop offset="0.4024" stop-color="#A4DCE3" stop-opacity="0.4024"/>
<stop offset="0.5852" stop-color="#B6E3E9" stop-opacity="0.5852"/>
<stop offset="0.763" stop-color="#D0EDF1" stop-opacity="0.763"/>
<stop offset="0.9357" stop-color="#F1F9FB" stop-opacity="0.9357"/>
<stop offset="1" stop-color="white"/>
</linearGradient>
<linearGradient id="paint8_linear_1_262" x1="737.548" y1="136.628" x2="738.839" y2="-8.89436" gradientUnits="userSpaceOnUse">
<stop stop-color="white" stop-opacity="0"/>
<stop offset="1" stop-color="white"/>
</linearGradient>
<linearGradient id="paint9_linear_1_262" x1="945.808" y1="412.105" x2="946.764" y2="304.37" gradientUnits="userSpaceOnUse">
<stop stop-color="white" stop-opacity="0"/>
<stop offset="1" stop-color="white"/>
</linearGradient>
<linearGradient id="paint10_linear_1_262" x1="668.392" y1="313.783" x2="669.348" y2="206.049" gradientUnits="userSpaceOnUse">
<stop stop-color="white" stop-opacity="0"/>
<stop offset="1" stop-color="white"/>
</linearGradient>
<linearGradient id="paint11_linear_1_262" x1="1663.75" y1="330.57" x2="1504.72" y2="171.935" gradientUnits="userSpaceOnUse">
<stop stop-color="#95D6DF" stop-opacity="0"/>
<stop offset="0.2116" stop-color="#99D7E0" stop-opacity="0.2116"/>
<stop offset="0.4024" stop-color="#A4DCE3" stop-opacity="0.4024"/>
<stop offset="0.5852" stop-color="#B6E3E9" stop-opacity="0.5852"/>
<stop offset="0.763" stop-color="#D0EDF1" stop-opacity="0.763"/>
<stop offset="0.9357" stop-color="#F1F9FB" stop-opacity="0.9357"/>
<stop offset="1" stop-color="white"/>
</linearGradient>
<linearGradient id="paint12_linear_1_262" x1="1900.94" y1="152.628" x2="1902.23" y2="7.10564" gradientUnits="userSpaceOnUse">
<stop stop-color="white" stop-opacity="0"/>
<stop offset="1" stop-color="white"/>
</linearGradient>
<linearGradient id="paint13_linear_1_262" x1="1831.78" y1="329.783" x2="1832.74" y2="222.049" gradientUnits="userSpaceOnUse">
<stop stop-color="white" stop-opacity="0"/>
<stop offset="1" stop-color="white"/>
</linearGradient>
<linearGradient id="paint14_linear_1_262" x1="682.588" y1="226.654" x2="630.054" y2="174.251" gradientUnits="userSpaceOnUse">
<stop stop-color="#95D6DF" stop-opacity="0"/>
<stop offset="0.2116" stop-color="#99D7E0" stop-opacity="0.2116"/>
<stop offset="0.4024" stop-color="#A4DCE3" stop-opacity="0.4024"/>
<stop offset="0.5852" stop-color="#B6E3E9" stop-opacity="0.5852"/>
<stop offset="0.763" stop-color="#D0EDF1" stop-opacity="0.763"/>
<stop offset="0.9357" stop-color="#F1F9FB" stop-opacity="0.9357"/>
<stop offset="1" stop-color="white"/>
</linearGradient>
<linearGradient id="paint15_linear_1_262" x1="1095.16" y1="314.151" x2="936.128" y2="155.516" gradientUnits="userSpaceOnUse">
<stop stop-color="#95D6DF" stop-opacity="0"/>
<stop offset="0.2116" stop-color="#99D7E0" stop-opacity="0.2116"/>
<stop offset="0.4024" stop-color="#A4DCE3" stop-opacity="0.4024"/>
<stop offset="0.5852" stop-color="#B6E3E9" stop-opacity="0.5852"/>
<stop offset="0.763" stop-color="#D0EDF1" stop-opacity="0.763"/>
<stop offset="0.9357" stop-color="#F1F9FB" stop-opacity="0.9357"/>
<stop offset="1" stop-color="white"/>
</linearGradient>
</defs>
</svg>
